<?xml version="1.0" encoding="utf-8"?>
<!-- Generator: Adobe Illustrator 22.1.0, SVG Export Plug-In . SVG Version: 6.00 Build 0)  -->
<svg version="1.1" id="Layer_1" xmlns="http://www.w3.org/2000/svg" xmlns:xlink="http://www.w3.org/1999/xlink" x="0px" y="0px"
	 viewBox="0 0 1920 900" style="enable-background:new 0 0 1920 900;" xml:space="preserve">
<style type="text/css">
	.st0{fill:url(#SVGID_1_);}
	.st1{fill:url(#SVGID_2_);}
	.st2{fill:url(#SVGID_3_);}
	.st3{fill:url(#SVGID_4_);}
	.st4{opacity:0.6;fill:#020230;enable-background:new    ;}
	.st5{fill:url(#SVGID_5_);}
	.st6{fill:url(#SVGID_6_);}
	.st7{fill:url(#SVGID_7_);}
	.st8{fill:url(#SVGID_8_);}
	.st9{fill:#FFFFFF;}
	.st10{opacity:0.4;}
	.st11{fill:#06033E;}
	.st12{fill:url(#SVGID_9_);}
	.st13{fill:url(#SVGID_10_);}
	.st14{opacity:0.4;fill:#06033E;enable-background:new    ;}
	.st15{opacity:0.5;fill:#06033E;enable-background:new    ;}
	.st16{fill:url(#SVGID_11_);}
	.st17{opacity:0.5;}
	.st18{fill:#E8975B;}
	.st19{fill:#F8359E;}
	.st20{fill:url(#SVGID_12_);}
	.st21{fill:url(#SVGID_13_);}
	.st22{fill:url(#SVGID_14_);}
	.st23{fill:url(#SVGID_15_);}
	.st24{fill:url(#SVGID_16_);}
	.st25{fill:url(#SVGID_17_);}
	.st26{fill:url(#SVGID_18_);}
	.st27{fill:#0C0A78;}
	.st28{fill:url(#SVGID_19_);}
	.st29{opacity:0.5;fill:#FFFFFF;enable-background:new    ;}
</style>
<radialGradient id="SVGID_1_" cx="893.964" cy="568.4033" r="807.7974" gradientTransform="matrix(3.1549 0 0 -1.9758 -2608.551 918.7702)" gradientUnits="userSpaceOnUse">
	<stop  offset="3.968250e-03" style="stop-color:#4C02F1"/>
	<stop  offset="8.168010e-03" style="stop-color:#4B02EF"/>
	<stop  offset="0.1263" style="stop-color:#3903C4"/>
	<stop  offset="0.2487" style="stop-color:#29039E"/>
	<stop  offset="0.3765" style="stop-color:#1D0380"/>
	<stop  offset="0.5099" style="stop-color:#130468"/>
	<stop  offset="0.6513" style="stop-color:#0C0457"/>
	<stop  offset="0.8062" style="stop-color:#07044D"/>
	<stop  offset="1" style="stop-color:#06044A"/>
</radialGradient>
<rect class="st0" width="1920" height="900"/>
<g>
	
		<linearGradient id="SVGID_2_" gradientUnits="userSpaceOnUse" x1="1408.2001" y1="193.025" x2="1486.5182" y2="193.025" gradientTransform="matrix(1 0 0 -1 0 900)">
		<stop  offset="0" style="stop-color:#E39A65"/>
		<stop  offset="1" style="stop-color:#E95F8D"/>
	</linearGradient>
	<path class="st1" d="M1447.4,730c-2.8,0-5.8-0.8-8.4-2.2l-28.2-16.2c-1.6-1-2.6-2.6-2.6-4.6c0-1.8,1-3.6,2.6-4.6l28.2-16.2
		c5.2-3,11.6-3,16.8,0l28.2,16.2c1.6,1,2.6,2.6,2.6,4.6c0,1.8-1,3.6-2.6,4.6l-28.2,16.2C1453.2,729.2,1450.2,730,1447.4,730z
		 M1447.4,688.4c-2.2,0-4.2,0.6-6.2,1.6l-28.2,16.2c-0.4,0.2-0.4,0.4-0.4,0.6c0,0.2,0,0.4,0.4,0.6l28.2,16.2l0,0
		c3.8,2.2,8.4,2.2,12.2,0l28.2-16.2c0.4-0.2,0.4-0.4,0.4-0.6c0-0.2,0-0.4-0.4-0.6l-28.2-16.2
		C1451.6,688.8,1449.4,688.4,1447.4,688.4z"/>
	
		<linearGradient id="SVGID_3_" gradientUnits="userSpaceOnUse" x1="1301.0001" y1="300.4" x2="1432.6" y2="300.4" gradientTransform="matrix(1 0 0 -1 0 900)">
		<stop  offset="0" style="stop-color:#E39A65"/>
		<stop  offset="1" style="stop-color:#E95F8D"/>
	</linearGradient>
	<path class="st2" d="M1366.8,637.6c-4.6,0-9.4-1.2-13.6-3.6l-48.6-28c-2.4-1.4-3.6-3.8-3.6-6.4c0-2.6,1.4-5,3.6-6.4l48.6-28
		c8.4-4.8,18.8-4.8,27.2,0l48.6,28c2.4,1.4,3.6,3.8,3.6,6.4c0,2.6-1.4,5-3.6,6.4l-48.6,28C1376.2,636.4,1371.4,637.6,1366.8,637.6z
		 M1355.4,630c7,4,15.6,4,22.6,0l48.6-28c1.4-0.8,1.4-2,1.4-2.6s-0.2-1.8-1.4-2.6l-48.6-28c-7-4-15.6-4-22.6,0l-48.6,28
		c-1.4,0.8-1.4,2-1.4,2.6s0.2,1.8,1.4,2.6L1355.4,630z"/>
	
		<linearGradient id="SVGID_4_" gradientUnits="userSpaceOnUse" x1="433.4" y1="256.4" x2="565" y2="256.4" gradientTransform="matrix(1 0 0 -1 0 900)">
		<stop  offset="0" style="stop-color:#E39A65"/>
		<stop  offset="1" style="stop-color:#E95F8D"/>
	</linearGradient>
	<path class="st3" d="M499.2,681.6c-4.6,0-9.4-1.2-13.6-3.6L437,650c-2.4-1.4-3.6-3.8-3.6-6.4c0-2.6,1.4-5,3.6-6.4l48.6-28
		c8.4-4.8,18.8-4.8,27.2,0l48.6,28c2.4,1.4,3.6,3.8,3.6,6.4c0,2.6-1.4,5-3.6,6.4l-48.6,28C508.6,680.4,504,681.6,499.2,681.6z
		 M499.2,610c-4,0-7.8,1-11.4,3l-48.6,28c-1.4,0.8-1.4,2-1.4,2.6s0.2,1.8,1.4,2.6l48.6,28l0,0c7,4,15.6,4,22.6,0l48.6-28
		c1.4-0.8,1.4-2,1.4-2.6s-0.2-1.8-1.4-2.6l-48.6-28C507,611.2,503.2,610,499.2,610z"/>
	<g>
		<path class="st4" d="M990.4,803.8L643.6,603.6c-5-3-4.4-8,1.4-11.4l222.6-128.6c5.8-3.4,14.6-3.8,19.8-0.8L1234.2,663
			c5,3,4.4,8-1.4,11.4L1010.2,803C1004.4,806.4,995.6,806.8,990.4,803.8z"/>
		
			<linearGradient id="SVGID_5_" gradientUnits="userSpaceOnUse" x1="586.6" y1="264.7243" x2="1288.5999" y2="264.7243" gradientTransform="matrix(1 0 0 -1 0 900)">
			<stop  offset="0" style="stop-color:#E39A65"/>
			<stop  offset="1" style="stop-color:#E95F8D"/>
		</linearGradient>
		<path class="st5" d="M998.4,840c-4,0-8-0.8-11-2.6l0,0L591.6,608.8c-3.2-1.8-5-4.6-5-7.6c0-3.4,2.4-6.8,6.6-9.2L863,434
			c7.4-4.2,18.2-4.6,24.8-1l395.8,228.6c3.2,1.8,5,4.6,5,7.6c0,3.4-2.4,6.8-6.6,9.2l-269.8,158C1008.2,838.8,1003.2,840,998.4,840z
			 M877,435c-4,0-8.4,1-11.6,2.8l-269.8,158c-2.8,1.6-4.4,3.6-4.4,5.4c0,1.8,1.6,3,2.8,3.8l395.8,228.6l0,0c5,3,14.4,2.4,20.2-1
			l269.8-158c2.8-1.6,4.4-3.6,4.4-5.4c0-1.8-1.6-3-2.8-3.8L885.6,436.8C883.4,435.6,880.2,435,877,435z"/>
		
			<radialGradient id="SVGID_6_" cx="974.4532" cy="784.6196" r="536.2604" gradientTransform="matrix(1 0 0 -1 0 900)" gradientUnits="userSpaceOnUse">
			<stop  offset="0" style="stop-color:#E39A65"/>
			<stop  offset="0.4742" style="stop-color:#A92FFB"/>
			<stop  offset="0.5947" style="stop-color:#891CFB"/>
			<stop  offset="0.7421" style="stop-color:#6507FA"/>
			<stop  offset="0.8016" style="stop-color:#0D0C6F"/>
		</radialGradient>
		<path class="st6" d="M1326.4,327.4L980.8,128c-2.4-1.4-4.8-1.6-7-1l0,0l0,0l0,0l-6.4,2.2l2.2,0.6c-1,1-1.6,2.4-2.2,4l-78.2,253.6
			c-2,6.2,1,14,6.4,17L1241,603.8c0.8,0.4,1.6,0.8,2.6,1l-0.8,1.8l6.2-2.2l0,0c2.6-1,4.6-3.2,5.6-6.4l78.2-253.6
			C1334.6,338.2,1331.8,330.6,1326.4,327.4z"/>
		
			<radialGradient id="SVGID_7_" cx="646.465" cy="353.9636" r="586.396" gradientTransform="matrix(1 0 0 -1 0 900)" gradientUnits="userSpaceOnUse">
			<stop  offset="0" style="stop-color:#E39A65"/>
			<stop  offset="0.4742" style="stop-color:#A92FFB"/>
			<stop  offset="0.5679" style="stop-color:#891CFB"/>
			<stop  offset="0.6825" style="stop-color:#6507FA"/>
			<stop  offset="0.7381" style="stop-color:#0D0C6F"/>
		</radialGradient>
		<path class="st7" d="M1228.8,613.4L1228.8,613.4L887.6,416.6c-5-2.8-13.8-2.6-19.6,0.8L647.6,544.6l-7.4-2.8l2,10.4l0,0
			c0.2,1.6,1.4,3,3.4,4.2L990,755.2c5,2.8,13.8,2.6,19.6-0.8l221-127.6c2.8-1.6,4.2-3.6,4.6-5.4l0,0l2.2-10L1228.8,613.4z"/>
		
			<radialGradient id="SVGID_8_" cx="700.3974" cy="471.663" r="525.847" gradientTransform="matrix(1 0 0 -1 0 900)" gradientUnits="userSpaceOnUse">
			<stop  offset="0" style="stop-color:#E39A65"/>
			<stop  offset="0.4742" style="stop-color:#A92FFB"/>
			<stop  offset="0.5875" style="stop-color:#891CFB"/>
			<stop  offset="0.7262" style="stop-color:#6507FA"/>
			<stop  offset="1" style="stop-color:#3919BB"/>
		</radialGradient>
		<path class="st8" d="M990.4,746L643.6,545.6c-5-3-4.4-8,1.4-11.4l222.6-128.6c5.8-3.4,14.6-3.8,19.8-0.8L1234.2,605
			c5,3,4.4,8-1.4,11.4L1010.2,745C1004.4,748.4,995.6,748.8,990.4,746z"/>
		<path class="st9" d="M1232.8,613.8l-222.6,128.6c-5.8,3.4-14.6,3.8-19.8,0.8L643.6,543c-1.8-1-2.8-2.2-3.2-3.6
			c-0.6,2.4,0.4,4.6,3.2,6.2L990.4,746c5,3,13.8,2.6,19.8-0.8l222.6-128.6c3.8-2.2,5.4-5.2,4.6-7.8
			C1236.8,610.6,1235.4,612.4,1232.8,613.8z"/>
		<g class="st10">
			<path class="st11" d="M809,513.2l-11.8-6.8c-1-0.6-0.8-1.4,0.2-2.2l13.8-8c1-0.6,2.8-0.6,3.6-0.2l11.8,6.8c1,0.6,0.8,1.4-0.2,2.2
				l-13.8,8C811.6,513.6,810,513.8,809,513.2z"/>
			<path class="st11" d="M827.2,523.6l-11.8-6.8c-1-0.6-0.8-1.4,0.2-2.2l13.8-8c1-0.6,2.8-0.6,3.6-0.2l11.8,6.8
				c1,0.6,0.8,1.4-0.2,2.2l-13.8,8C829.8,524.2,828,524.2,827.2,523.6z"/>
			<path class="st11" d="M845.2,534l-11.8-6.8c-1-0.6-0.8-1.4,0.2-2.2l13.8-8c1-0.6,2.8-0.6,3.6-0.2l11.8,6.8c1,0.6,0.8,1.4-0.2,2.2
				l-13.8,8C847.8,534.6,846.2,534.6,845.2,534z"/>
			<path class="st11" d="M870.2,525.4l-11.8-6.8c-1-0.6-0.8-1.4,0.2-2.2l11.6-6.6c1-0.6,2.8-0.6,3.6-0.2l11.8,6.8
				c1,0.6,0.8,1.4-0.2,2.2l-11.6,6.6C872.8,526,871.2,526,870.2,525.4z"/>
			<path class="st11" d="M888.4,535.8l-11.8-6.8c-1-0.6-0.8-1.4,0.2-2.2l11.6-6.6c1-0.6,2.8-0.6,3.6-0.2l11.8,6.8
				c1,0.6,0.8,1.4-0.2,2.2l-11.6,6.6C891,536.4,889.2,536.4,888.4,535.8z"/>
			<path class="st11" d="M906.4,546.4l-11.8-6.8c-1-0.6-0.8-1.4,0.2-2.2l11.6-6.6c1-0.6,2.8-0.6,3.6-0.2l11.8,6.8
				c1,0.6,0.8,1.4-0.2,2.2l-11.6,6.6C909,546.8,907.4,546.8,906.4,546.4z"/>
			<path class="st11" d="M924.6,556.8l-11.8-6.8c-1-0.6-0.8-1.4,0.2-2.2l11.6-6.6c1-0.6,2.8-0.6,3.6-0.2l11.8,6.8
				c1,0.6,0.8,1.4-0.2,2.2l-11.6,6.6C927,557.2,925.4,557.4,924.6,556.8z"/>
			<path class="st11" d="M942.6,567.2l-11.8-6.8c-1-0.6-0.8-1.4,0.2-2.2l11.6-6.6c1-0.6,2.8-0.6,3.6-0.2l11.8,6.8
				c1,0.6,0.8,1.4-0.2,2.2l-11.6,6.6C945.2,567.6,943.6,567.8,942.6,567.2z"/>
			<path class="st11" d="M960.6,577.6l-11.8-6.8c-1-0.6-0.8-1.4,0.2-2.2l11.6-6.6c1-0.6,2.8-0.6,3.6-0.2l11.8,6.8
				c1,0.6,0.8,1.4-0.2,2.2l-11.6,6.6C963.2,578.2,961.6,578.2,960.6,577.6z"/>
			<path class="st11" d="M978.8,588l-11.8-6.8c-1-0.6-0.8-1.4,0.2-2.2l11.6-6.6c1-0.6,2.8-0.6,3.6-0.2l11.8,6.8
				c1,0.6,0.8,1.4-0.2,2.2l-11.6,6.6C981.4,588.6,979.6,588.6,978.8,588z"/>
			<path class="st11" d="M996.8,598.6l-11.8-6.8c-1-0.6-0.8-1.4,0.2-2.2l11.6-6.6c1-0.6,2.8-0.6,3.6-0.2l11.8,6.8
				c1,0.6,0.8,1.4-0.2,2.2l-11.6,6.6C999.4,599,997.8,599,996.8,598.6z"/>
			<path class="st11" d="M1015,609l-11.8-6.8c-1-0.6-0.8-1.4,0.2-2.2l11.6-6.6c1-0.6,2.8-0.6,3.6-0.2l11.8,6.8
				c1,0.6,0.8,1.4-0.2,2.2l-11.6,6.6C1017.6,609.4,1015.8,609.6,1015,609z"/>
			<path class="st11" d="M1033,619.4l-11.8-6.8c-1-0.6-0.8-1.4,0.2-2.2l11.6-6.6c1-0.6,2.8-0.6,3.6-0.2l11.8,6.8
				c1,0.6,0.8,1.4-0.2,2.2l-11.6,6.6C1035.6,619.8,1034,620,1033,619.4z"/>
			<path class="st11" d="M896.8,520.6l-11.8-6.8c-1-0.6-0.8-1.4,0.2-2.2l11.6-6.6c1-0.6,2.8-0.6,3.6-0.2l11.8,6.8
				c1,0.6,0.8,1.4-0.2,2.2l-11.6,6.6C899.4,521,897.8,521,896.8,520.6z"/>
			<path class="st11" d="M878.6,510l-11.8-6.8c-1-0.6-0.8-1.4,0.2-2.2l11.6-6.6c1-0.6,2.8-0.6,3.6-0.2L894,501
				c1,0.6,0.8,1.4-0.2,2.2l-11.6,6.6C881.2,510.4,879.4,510.4,878.6,510z"/>
			<path class="st11" d="M860.2,499.2L835,484.6c-1-0.6-0.8-1.4,0.2-2.2l11.6-6.6c1-0.6,2.8-0.6,3.6-0.2l25.2,14.6
				c1,0.6,0.8,1.4-0.2,2.2l-11.6,6.6C862.8,499.8,861,499.8,860.2,499.2z"/>
			<path class="st11" d="M873,486.4l-20.4-11.8c-1-0.6-0.8-1.4,0.2-2.2l11.6-6.6c1-0.6,2.8-0.6,3.6-0.2l20.4,11.8
				c1,0.6,0.8,1.4-0.2,2.2l-11.6,6.6C875.6,486.8,874,487,873,486.4z"/>
			<path class="st11" d="M915,531l-11.8-6.8c-1-0.6-0.8-1.4,0.2-2.2l11.6-6.6c1-0.6,2.8-0.6,3.6-0.2l11.8,6.8c1,0.6,0.8,1.4-0.2,2.2
				l-11.6,6.6C917.6,531.4,916,531.4,915,531z"/>
			<path class="st11" d="M933,541.4l-11.8-6.8c-1-0.6-0.8-1.4,0.2-2.2l11.6-6.6c1-0.6,2.8-0.6,3.6-0.2l11.8,6.8
				c1,0.6,0.8,1.4-0.2,2.2l-11.6,6.6C935.6,541.8,934,542,933,541.4z"/>
			<path class="st11" d="M951.2,551.8l-11.8-6.8c-1-0.6-0.8-1.4,0.2-2.2l11.6-6.6c1-0.6,2.8-0.6,3.6-0.2l11.8,6.8
				c1,0.6,0.8,1.4-0.2,2.2l-11.6,6.6C953.8,552.2,952,552.4,951.2,551.8z"/>
			<path class="st11" d="M969.2,562.2l-11.8-6.8c-1-0.6-0.8-1.4,0.2-2.2l11.6-6.6c1-0.6,2.8-0.6,3.6-0.2l11.8,6.8
				c1,0.6,0.8,1.4-0.2,2.2l-11.6,6.6C971.8,562.8,970.2,562.8,969.2,562.2z"/>
			<path class="st11" d="M987.4,572.8l-11.8-6.8c-1-0.6-0.8-1.4,0.2-2.2l11.6-6.6c1-0.6,2.8-0.6,3.6-0.2l11.8,6.8
				c1,0.6,0.8,1.4-0.2,2.2l-11.6,6.6C990,573.2,988.2,573.2,987.4,572.8z"/>
			<path class="st11" d="M1005.4,583.2l-11.8-6.8c-1-0.6-0.8-1.4,0.2-2.2l11.6-6.6c1-0.6,2.8-0.6,3.6-0.2l11.8,6.8
				c1,0.6,0.8,1.4-0.2,2.2L1009,583C1008,583.6,1006.4,583.6,1005.4,583.2z"/>
			<path class="st11" d="M1023.4,593.6l-11.8-6.8c-1-0.6-0.8-1.4,0.2-2.2l11.6-6.6c1-0.6,2.8-0.6,3.6-0.2l11.8,6.8
				c1,0.6,0.8,1.4-0.2,2.2l-11.6,6.6C1026,594,1024.4,594.2,1023.4,593.6z"/>
			<path class="st11" d="M1041.6,604l-11.8-6.8c-1-0.6-0.8-1.4,0.2-2.2l11.6-6.6c1-0.6,2.8-0.6,3.6-0.2l11.8,6.8
				c1,0.6,0.8,1.4-0.2,2.2l-11.6,6.6C1044.2,604.6,1042.6,604.6,1041.6,604z"/>
			<path class="st11" d="M1059.6,614.4l-11.8-6.8c-1-0.6-0.8-1.4,0.2-2.2l11.6-6.6c1-0.6,2.8-0.6,3.6-0.2l11.8,6.8
				c1,0.6,0.8,1.4-0.2,2.2l-11.6,6.6C1062.2,615,1060.6,615,1059.6,614.4z"/>
			<path class="st11" d="M1091.8,633l-25.6-14.8c-1-0.6-0.8-1.4,0.2-2.2l11.6-6.6c1-0.6,2.8-0.6,3.6-0.2l25.6,14.8
				c1,0.6,0.8,1.4-0.2,2.2l-11.6,6.6C1094.4,633.6,1092.8,633.6,1091.8,633z"/>
			<path class="st11" d="M1127,612.8l-21.6-12.4c-1-0.6-0.8-1.4,0.2-2.2l11.6-6.6c1-0.6,2.8-0.6,3.6-0.2l21.6,12.4
				c1,0.6,0.8,1.4-0.2,2.2l-11.6,6.6C1129.6,613.2,1128,613.2,1127,612.8z"/>
			<path class="st11" d="M946.6,528.8l-11.8-6.8c-1-0.6-0.8-1.4,0.2-2.2l11.6-6.6c1-0.6,2.8-0.6,3.6-0.2l11.8,6.8
				c1,0.6,0.8,1.4-0.2,2.2l-11.6,6.6C949.2,529.4,947.6,529.4,946.6,528.8z"/>
			<path class="st11" d="M928.2,518.2l-11.8-6.8c-1-0.6-0.8-1.4,0.2-2.2l11.6-6.6c1-0.6,2.8-0.6,3.6-0.2l11.8,6.8
				c1,0.6,0.8,1.4-0.2,2.2l-11.6,6.6C930.6,518.6,929,518.8,928.2,518.2z"/>
			<path class="st11" d="M909.6,507.4l-11.8-6.8c-1-0.6-0.8-1.4,0.2-2.2l11.6-6.6c1-0.6,2.8-0.6,3.6-0.2l11.8,6.8
				c1,0.6,0.8,1.4-0.2,2.2l-11.6,6.6C912.2,508,910.6,508,909.6,507.4z"/>
			<path class="st11" d="M891,496.8l-11.8-6.8c-1-0.6-0.8-1.4,0.2-2.2l11.6-6.6c1-0.6,2.8-0.6,3.6-0.2l11.8,6.8
				c1,0.6,0.8,1.4-0.2,2.2l-11.6,6.6C893.6,497.2,892,497.4,891,496.8z"/>
			<path class="st11" d="M964.8,539.4l-11.8-6.8c-1-0.6-0.8-1.4,0.2-2.2l11.6-6.6c1-0.6,2.8-0.6,3.6-0.2l11.8,6.8
				c1,0.6,0.8,1.4-0.2,2.2l-11.6,6.6C967.4,539.8,965.6,539.8,964.8,539.4z"/>
			<path class="st11" d="M982.8,549.8L971,543c-1-0.6-0.8-1.4,0.2-2.2l11.6-6.6c1-0.6,2.8-0.6,3.6-0.2l11.8,6.8
				c1,0.6,0.8,1.4-0.2,2.2l-11.6,6.6C985.4,550.2,983.8,550.4,982.8,549.8z"/>
			<path class="st11" d="M1001,560.2l-11.8-6.8c-1-0.6-0.8-1.4,0.2-2.2l11.6-6.6c1-0.6,2.8-0.6,3.6-0.2l11.8,6.8
				c1,0.6,0.8,1.4-0.2,2.2l-11.6,6.6C1003.4,560.6,1001.8,560.8,1001,560.2z"/>
			<path class="st11" d="M1019,570.6l-11.8-6.8c-1-0.6-0.8-1.4,0.2-2.2l11.6-6.6c1-0.6,2.8-0.6,3.6-0.2l11.8,6.8
				c1,0.6,0.8,1.4-0.2,2.2l-11.6,6.6C1021.6,571.2,1020,571.2,1019,570.6z"/>
			<path class="st11" d="M1037,581.2l-11.8-6.8c-1-0.6-0.8-1.4,0.2-2.2l11.6-6.6c1-0.6,2.8-0.6,3.6-0.2l11.8,6.8
				c1,0.6,0.8,1.4-0.2,2.2l-11.6,6.6C1039.6,581.6,1038,581.6,1037,581.2z"/>
			<path class="st11" d="M1055.2,591.6l-11.8-6.8c-1-0.6-0.8-1.4,0.2-2.2l11.6-6.6c1-0.6,2.8-0.6,3.6-0.2l11.8,6.8
				c1,0.6,0.8,1.4-0.2,2.2l-11.6,6.6C1057.8,592,1056,592,1055.2,591.6z"/>
			<path class="st11" d="M1073.2,602l-11.8-6.8c-1-0.6-0.8-1.4,0.2-2.2l11.6-6.6c1-0.6,2.8-0.6,3.6-0.2l11.8,6.8
				c1,0.6,0.8,1.4-0.2,2.2l-11.6,6.6C1075.8,602.4,1074.2,602.6,1073.2,602z"/>
			<path class="st11" d="M1091.4,612.4l-11.8-6.8c-1-0.6-0.8-1.4,0.2-2.2l11.6-6.6c1-0.6,2.8-0.6,3.6-0.2l11.8,6.8
				c1,0.6,0.8,1.4-0.2,2.2l-11.6,6.6C1094,613,1092.2,613,1091.4,612.4z"/>
			<path class="st11" d="M1109.4,622.8l-11.8-6.8c-1-0.6-0.8-1.4,0.2-2.2l11.6-6.6c1-0.6,2.8-0.6,3.6-0.2l11.8,6.8
				c1,0.6,0.8,1.4-0.2,2.2l-11.6,6.6C1112,623.4,1110.4,623.4,1109.4,622.8z"/>
			<path class="st11" d="M937.2,503l-11.8-6.8c-1-0.6-0.8-1.4,0.2-2.2l11.6-6.6c1-0.6,2.8-0.6,3.6-0.2l11.8,6.8
				c1,0.6,0.8,1.4-0.2,2.2l-11.6,6.6C939.8,503.6,938,503.6,937.2,503z"/>
			<path class="st11" d="M919.2,492.6l-11.8-6.8c-1-0.6-0.8-1.4,0.2-2.2l11.6-6.6c1-0.6,2.8-0.6,3.6-0.2l11.8,6.8
				c1,0.6,0.8,1.4-0.2,2.2l-11.6,6.6C921.8,493.2,920,493.2,919.2,492.6z"/>
			<path class="st11" d="M901.2,482.2l-11.8-6.8c-1-0.6-0.8-1.4,0.2-2.2l11.6-6.6c1-0.6,2.8-0.6,3.6-0.2l11.8,6.8
				c1,0.6,0.8,1.4-0.2,2.2l-11.6,6.6C903.8,482.8,902,482.8,901.2,482.2z"/>
			<path class="st11" d="M883.2,472l-11.8-6.8c-1-0.6-0.8-1.4,0.2-2.2l11.6-6.6c1-0.6,2.8-0.6,3.6-0.2l11.8,6.8
				c1,0.6,0.8,1.4-0.2,2.2l-11.6,6.6C885.8,472.4,884,472.4,883.2,472z"/>
			<path class="st11" d="M901.6,461.2l-11.8-6.8c-1-0.6-0.8-1.4,0.2-2.2l3.8-2.2c1-0.6,2.8-0.6,3.6-0.2l11.8,6.8
				c1,0.6,0.8,1.4-0.2,2.2l-3.8,2.2C904.2,461.6,902.6,461.8,901.6,461.2z"/>
			<path class="st11" d="M925.2,474.8l-11.8-6.8c-1-0.6-0.8-1.4,0.2-2.2l3.8-2.2c1-0.6,2.8-0.6,3.6-0.2l11.8,6.8
				c1,0.6,0.8,1.4-0.2,2.2l-3.8,2.2C927.8,475.2,926,475.4,925.2,474.8z"/>
			<path class="st11" d="M943,485.2l-11.8-6.8c-1-0.6-0.8-1.4,0.2-2.2l3.8-2.2c1-0.6,2.8-0.6,3.6-0.2l11.8,6.8
				c1,0.6,0.8,1.4-0.2,2.2l-3.8,2.2C945.6,485.6,944,485.6,943,485.2z"/>
			<path class="st11" d="M961,495.4l-11.8-6.8c-1-0.6-0.8-1.4,0.2-2.2l3.8-2.2c1-0.6,2.8-0.6,3.6-0.2l11.8,6.8
				c1,0.6,0.8,1.4-0.2,2.2l-3.8,2.2C963.6,496,962,496,961,495.4z"/>
			<path class="st11" d="M978.8,505.8L967,499c-1-0.6-0.8-1.4,0.2-2.2l3.8-2.2c1-0.6,2.8-0.6,3.6-0.2l11.8,6.8
				c1,0.6,0.8,1.4-0.2,2.2l-3.8,2.2C981.4,506.2,979.8,506.4,978.8,505.8z"/>
			<path class="st11" d="M1079,563.6l-11.8-6.8c-1-0.6-0.8-1.4,0.2-2.2l3.8-2.2c1-0.6,2.8-0.6,3.6-0.2l11.8,6.8
				c1,0.6,0.8,1.4-0.2,2.2l-3.8,2.2C1081.6,564,1079.8,564.2,1079,563.6z"/>
			<path class="st11" d="M1096.8,574l-11.8-6.8c-1-0.6-0.8-1.4,0.2-2.2l3.8-2.2c1-0.6,2.8-0.6,3.6-0.2l11.8,6.8
				c1,0.6,0.8,1.4-0.2,2.2l-3.8,2.2C1099.4,574.4,1097.8,574.4,1096.8,574z"/>
			<path class="st11" d="M1114.8,584.2l-11.8-6.8c-1-0.6-0.8-1.4,0.2-2.2l3.8-2.2c1-0.6,2.8-0.6,3.6-0.2l11.8,6.8
				c1,0.6,0.8,1.4-0.2,2.2l-3.8,2.2C1117.4,584.8,1115.8,584.8,1114.8,584.2z"/>
			<path class="st11" d="M1132.6,594.6l-11.8-6.8c-1-0.6-0.8-1.4,0.2-2.2l3.8-2.2c1-0.6,2.8-0.6,3.6-0.2l11.8,6.8
				c1,0.6,0.8,1.4-0.2,2.2l-3.8,2.2C1135.2,595,1133.6,595.2,1132.6,594.6z"/>
			<path class="st11" d="M955.2,513.6l-11.8-6.8c-1-0.6-0.8-1.4,0.2-2.2l11.6-6.6c1-0.6,2.8-0.6,3.6-0.2l11.8,6.8
				c1,0.6,0.8,1.4-0.2,2.2l-11.6,6.6C957.8,514,956.2,514,955.2,513.6z"/>
			<path class="st11" d="M973.2,524l-11.8-6.8c-1-0.6-0.8-1.4,0.2-2.2l11.6-6.6c1-0.6,2.8-0.6,3.6-0.2l11.8,6.8
				c1,0.6,0.8,1.4-0.2,2.2l-11.6,6.6C975.8,524.4,974.2,524.4,973.2,524z"/>
			<path class="st11" d="M991.4,534.4l-11.8-6.8c-1-0.6-0.8-1.4,0.2-2.2l11.6-6.6c1-0.6,2.8-0.6,3.6-0.2l11.8,6.8
				c1,0.6,0.8,1.4-0.2,2.2l-11.6,6.6C994,534.8,992.4,535,991.4,534.4z"/>
			<path class="st11" d="M1009.4,544.8l-11.8-6.8c-1-0.6-0.8-1.4,0.2-2.2l11.6-6.6c1-0.6,2.8-0.6,3.6-0.2l11.8,6.8
				c1,0.6,0.8,1.4-0.2,2.2l-11.6,6.6C1012,545.4,1010.4,545.4,1009.4,544.8z"/>
			<path class="st11" d="M1027.6,555.2l-11.8-6.8c-1-0.6-0.8-1.4,0.2-2.2l11.6-6.6c1-0.6,2.8-0.6,3.6-0.2l11.8,6.8
				c1,0.6,0.8,1.4-0.2,2.2l-11.6,6.6C1030.2,555.8,1028.4,555.8,1027.6,555.2z"/>
			<path class="st11" d="M1045.6,565.8l-11.8-6.8c-1-0.6-0.8-1.4,0.2-2.2l11.6-6.6c1-0.6,2.8-0.6,3.6-0.2l11.8,6.8
				c1,0.6,0.8,1.4-0.2,2.2l-11.6,6.6C1048.2,566.2,1046.6,566.2,1045.6,565.8z"/>
			<path class="st11" d="M1063.8,576.2l-11.8-6.8c-1-0.6-0.8-1.4,0.2-2.2l11.6-6.6c1-0.6,2.8-0.6,3.6-0.2l11.8,6.8
				c1,0.6,0.8,1.4-0.2,2.2l-11.6,6.6C1066.4,576.6,1064.6,576.8,1063.8,576.2z"/>
			<path class="st11" d="M1081.8,586.6l-11.8-6.8c-1-0.6-0.8-1.4,0.2-2.2l11.6-6.6c1-0.6,2.8-0.6,3.6-0.2l11.8,6.8
				c1,0.6,0.8,1.4-0.2,2.2l-11.6,6.6C1084.4,587,1082.8,587.2,1081.8,586.6z"/>
			<path class="st11" d="M1099.8,597l-11.8-6.8c-1-0.6-0.8-1.4,0.2-2.2l11.6-6.6c1-0.6,2.8-0.6,3.6-0.2l11.8,6.8
				c1,0.6,0.8,1.4-0.2,2.2l-11.6,6.6C1102.4,597.6,1100.8,597.6,1099.8,597z"/>
			<path class="st11" d="M851.8,514.8l-34.4-20c-1-0.6-0.8-1.4,0.2-2.2l11.6-6.6c1-0.6,2.8-0.6,3.6-0.2l34.4,20
				c1,0.6,0.8,1.4-0.2,2.2l-11.6,6.6C854.4,515.2,852.8,515.4,851.8,514.8z"/>
			<path class="st11" d="M1074,643l-34.4-20c-1-0.6-0.8-1.4,0.2-2.2l11.6-6.6c1-0.6,2.8-0.6,3.6-0.2l34.4,20c1,0.6,0.8,1.4-0.2,2.2
				l-11.6,6.6C1076.6,643.6,1075,643.6,1074,643z"/>
			<path class="st11" d="M1001.6,624.4l-11.8-6.8c-1-0.6-0.8-1.4,0.2-2.2l13.8-8c1-0.6,2.8-0.6,3.6-0.2l11.8,6.8
				c1,0.6,0.8,1.4-0.2,2.2l-13.8,8C1004.2,624.8,1002.6,625,1001.6,624.4z"/>
			<path class="st11" d="M870.4,548.6l-18.8-10.8c-1-0.6-0.8-1.4,0.2-2.2l13.8-8c1-0.6,2.8-0.6,3.6-0.2l18.8,10.8
				c1,0.6,0.8,1.4-0.2,2.2l-13.8,8C873,549,871.2,549.2,870.4,548.6z"/>
			<path class="st11" d="M984.2,614.4l-18.8-10.8c-1-0.6-0.8-1.4,0.2-2.2l13.8-8c1-0.6,2.8-0.6,3.6-0.2l18.8,10.8
				c1,0.6,0.8,1.4-0.2,2.2l-13.8,8C986.8,614.8,985.2,614.8,984.2,614.4z"/>
			<path class="st11" d="M896.4,563.6l-18.8-10.8c-1-0.6-0.8-1.4,0.2-2.2l13.8-8c1-0.6,2.8-0.6,3.6-0.2l18.8,10.8
				c1,0.6,0.8,1.4-0.2,2.2l-13.8,8C899,564,897.4,564.2,896.4,563.6z"/>
			<path class="st11" d="M895.6,542.6l81.4,47c1,0.6,1,1.6,0,2.2l-14,8.2c-1,0.6-2.6,0.6-3.6,0L878,553L895.6,542.6z"/>
			<path class="st11" d="M1052.2,643.4l13,7.6c0.8,0.4,0.6,1.2-0.2,1.8l-5.6,3.2c-0.8,0.6-2.2,0.6-3,0.2l-13-7.6
				c-0.8-0.4-0.6-1.2,0.2-1.8l5.6-3.2C1050,643,1051.4,642.8,1052.2,643.4z"/>
			<path class="st11" d="M1034,632.8l13,7.6c0.8,0.4,0.6,1.2-0.2,1.8l-5.6,3.2c-0.8,0.6-2.2,0.6-3,0.2l-13-7.6
				c-0.8-0.4-0.6-1.2,0.2-1.8l5.6-3.2C1031.8,632.4,1033.2,632.4,1034,632.8z"/>
			<path class="st11" d="M1015.8,622.4l13,7.6c0.8,0.4,0.6,1.2-0.2,1.8l-5.6,3.2c-0.8,0.6-2.2,0.6-3,0.2l-13-7.6
				c-0.8-0.4-0.6-1.2,0.2-1.8l5.6-3.2C1013.8,622,1015.2,622,1015.8,622.4z"/>
			<path class="st11" d="M1044,627l13,7.6c0.8,0.4,0.6,1.2-0.2,1.8l-5.6,3.2c-0.8,0.6-2.2,0.6-3,0.2l-13-7.6
				c-0.8-0.4-0.6-1.2,0.2-1.8l5.6-3.2C1041.8,626.6,1043.2,626.6,1044,627z"/>
		</g>
		<g class="st10">
			<path class="st11" d="M809,513.2l-11.8-6.8c-1-0.6-0.8-1.4,0.2-2.2l13.8-8c1-0.6,2.8-0.6,3.6-0.2l11.8,6.8c1,0.6,0.8,1.4-0.2,2.2
				l-13.8,8C811.6,513.6,810,513.8,809,513.2z"/>
			<path class="st11" d="M827.2,523.6l-11.8-6.8c-1-0.6-0.8-1.4,0.2-2.2l13.8-8c1-0.6,2.8-0.6,3.6-0.2l11.8,6.8
				c1,0.6,0.8,1.4-0.2,2.2l-13.8,8C829.8,524.2,828,524.2,827.2,523.6z"/>
			<path class="st11" d="M845.2,534l-11.8-6.8c-1-0.6-0.8-1.4,0.2-2.2l13.8-8c1-0.6,2.8-0.6,3.6-0.2l11.8,6.8c1,0.6,0.8,1.4-0.2,2.2
				l-13.8,8C847.8,534.6,846.2,534.6,845.2,534z"/>
			<path class="st11" d="M870.2,525.4l-11.8-6.8c-1-0.6-0.8-1.4,0.2-2.2l11.6-6.6c1-0.6,2.8-0.6,3.6-0.2l11.8,6.8
				c1,0.6,0.8,1.4-0.2,2.2l-11.6,6.6C872.8,526,871.2,526,870.2,525.4z"/>
			<path class="st11" d="M888.4,535.8l-11.8-6.8c-1-0.6-0.8-1.4,0.2-2.2l11.6-6.6c1-0.6,2.8-0.6,3.6-0.2l11.8,6.8
				c1,0.6,0.8,1.4-0.2,2.2l-11.6,6.6C891,536.4,889.2,536.4,888.4,535.8z"/>
			<path class="st11" d="M906.4,546.4l-11.8-6.8c-1-0.6-0.8-1.4,0.2-2.2l11.6-6.6c1-0.6,2.8-0.6,3.6-0.2l11.8,6.8
				c1,0.6,0.8,1.4-0.2,2.2l-11.6,6.6C909,546.8,907.4,546.8,906.4,546.4z"/>
			<path class="st11" d="M924.6,556.8l-11.8-6.8c-1-0.6-0.8-1.4,0.2-2.2l11.6-6.6c1-0.6,2.8-0.6,3.6-0.2l11.8,6.8
				c1,0.6,0.8,1.4-0.2,2.2l-11.6,6.6C927,557.2,925.4,557.4,924.6,556.8z"/>
			<path class="st11" d="M942.6,567.2l-11.8-6.8c-1-0.6-0.8-1.4,0.2-2.2l11.6-6.6c1-0.6,2.8-0.6,3.6-0.2l11.8,6.8
				c1,0.6,0.8,1.4-0.2,2.2l-11.6,6.6C945.2,567.6,943.6,567.8,942.6,567.2z"/>
			<path class="st11" d="M960.6,577.6l-11.8-6.8c-1-0.6-0.8-1.4,0.2-2.2l11.6-6.6c1-0.6,2.8-0.6,3.6-0.2l11.8,6.8
				c1,0.6,0.8,1.4-0.2,2.2l-11.6,6.6C963.2,578.2,961.6,578.2,960.6,577.6z"/>
			<path class="st11" d="M978.8,588l-11.8-6.8c-1-0.6-0.8-1.4,0.2-2.2l11.6-6.6c1-0.6,2.8-0.6,3.6-0.2l11.8,6.8
				c1,0.6,0.8,1.4-0.2,2.2l-11.6,6.6C981.4,588.6,979.6,588.6,978.8,588z"/>
			<path class="st11" d="M996.8,598.6l-11.8-6.8c-1-0.6-0.8-1.4,0.2-2.2l11.6-6.6c1-0.6,2.8-0.6,3.6-0.2l11.8,6.8
				c1,0.6,0.8,1.4-0.2,2.2l-11.6,6.6C999.4,599,997.8,599,996.8,598.6z"/>
			<path class="st11" d="M1015,609l-11.8-6.8c-1-0.6-0.8-1.4,0.2-2.2l11.6-6.6c1-0.6,2.8-0.6,3.6-0.2l11.8,6.8
				c1,0.6,0.8,1.4-0.2,2.2l-11.6,6.6C1017.6,609.4,1015.8,609.6,1015,609z"/>
			<path class="st11" d="M1033,619.4l-11.8-6.8c-1-0.6-0.8-1.4,0.2-2.2l11.6-6.6c1-0.6,2.8-0.6,3.6-0.2l11.8,6.8
				c1,0.6,0.8,1.4-0.2,2.2l-11.6,6.6C1035.6,619.8,1034,620,1033,619.4z"/>
			<path class="st11" d="M896.8,520.6l-11.8-6.8c-1-0.6-0.8-1.4,0.2-2.2l11.6-6.6c1-0.6,2.8-0.6,3.6-0.2l11.8,6.8
				c1,0.6,0.8,1.4-0.2,2.2l-11.6,6.6C899.4,521,897.8,521,896.8,520.6z"/>
			<path class="st11" d="M878.6,510l-11.8-6.8c-1-0.6-0.8-1.4,0.2-2.2l11.6-6.6c1-0.6,2.8-0.6,3.6-0.2L894,501
				c1,0.6,0.8,1.4-0.2,2.2l-11.6,6.6C881.2,510.4,879.4,510.4,878.6,510z"/>
			<path class="st11" d="M860.2,499.2L835,484.6c-1-0.6-0.8-1.4,0.2-2.2l11.6-6.6c1-0.6,2.8-0.6,3.6-0.2l25.2,14.6
				c1,0.6,0.8,1.4-0.2,2.2l-11.6,6.6C862.8,499.8,861,499.8,860.2,499.2z"/>
			<path class="st11" d="M873,486.4l-20.4-11.8c-1-0.6-0.8-1.4,0.2-2.2l11.6-6.6c1-0.6,2.8-0.6,3.6-0.2l20.4,11.8
				c1,0.6,0.8,1.4-0.2,2.2l-11.6,6.6C875.6,486.8,874,487,873,486.4z"/>
			<path class="st11" d="M915,531l-11.8-6.8c-1-0.6-0.8-1.4,0.2-2.2l11.6-6.6c1-0.6,2.8-0.6,3.6-0.2l11.8,6.8c1,0.6,0.8,1.4-0.2,2.2
				l-11.6,6.6C917.6,531.4,916,531.4,915,531z"/>
			<path class="st11" d="M933,541.4l-11.8-6.8c-1-0.6-0.8-1.4,0.2-2.2l11.6-6.6c1-0.6,2.8-0.6,3.6-0.2l11.8,6.8
				c1,0.6,0.8,1.4-0.2,2.2l-11.6,6.6C935.6,541.8,934,542,933,541.4z"/>
			<path class="st11" d="M951.2,551.8l-11.8-6.8c-1-0.6-0.8-1.4,0.2-2.2l11.6-6.6c1-0.6,2.8-0.6,3.6-0.2l11.8,6.8
				c1,0.6,0.8,1.4-0.2,2.2l-11.6,6.6C953.8,552.2,952,552.4,951.2,551.8z"/>
			<path class="st11" d="M969.2,562.2l-11.8-6.8c-1-0.6-0.8-1.4,0.2-2.2l11.6-6.6c1-0.6,2.8-0.6,3.6-0.2l11.8,6.8
				c1,0.6,0.8,1.4-0.2,2.2l-11.6,6.6C971.8,562.8,970.2,562.8,969.2,562.2z"/>
			<path class="st11" d="M987.4,572.8l-11.8-6.8c-1-0.6-0.8-1.4,0.2-2.2l11.6-6.6c1-0.6,2.8-0.6,3.6-0.2l11.8,6.8
				c1,0.6,0.8,1.4-0.2,2.2l-11.6,6.6C990,573.2,988.2,573.2,987.4,572.8z"/>
			<path class="st11" d="M1005.4,583.2l-11.8-6.8c-1-0.6-0.8-1.4,0.2-2.2l11.6-6.6c1-0.6,2.8-0.6,3.6-0.2l11.8,6.8
				c1,0.6,0.8,1.4-0.2,2.2L1009,583C1008,583.6,1006.4,583.6,1005.4,583.2z"/>
			<path class="st11" d="M1023.4,593.6l-11.8-6.8c-1-0.6-0.8-1.4,0.2-2.2l11.6-6.6c1-0.6,2.8-0.6,3.6-0.2l11.8,6.8
				c1,0.6,0.8,1.4-0.2,2.2l-11.6,6.6C1026,594,1024.4,594.2,1023.4,593.6z"/>
			<path class="st11" d="M1041.6,604l-11.8-6.8c-1-0.6-0.8-1.4,0.2-2.2l11.6-6.6c1-0.6,2.8-0.6,3.6-0.2l11.8,6.8
				c1,0.6,0.8,1.4-0.2,2.2l-11.6,6.6C1044.2,604.6,1042.6,604.6,1041.6,604z"/>
			<path class="st11" d="M1059.6,614.4l-11.8-6.8c-1-0.6-0.8-1.4,0.2-2.2l11.6-6.6c1-0.6,2.8-0.6,3.6-0.2l11.8,6.8
				c1,0.6,0.8,1.4-0.2,2.2l-11.6,6.6C1062.2,615,1060.6,615,1059.6,614.4z"/>
			<path class="st11" d="M1091.8,633l-25.6-14.8c-1-0.6-0.8-1.4,0.2-2.2l11.6-6.6c1-0.6,2.8-0.6,3.6-0.2l25.6,14.8
				c1,0.6,0.8,1.4-0.2,2.2l-11.6,6.6C1094.4,633.6,1092.8,633.6,1091.8,633z"/>
			<path class="st11" d="M1127,612.8l-21.6-12.4c-1-0.6-0.8-1.4,0.2-2.2l11.6-6.6c1-0.6,2.8-0.6,3.6-0.2l21.6,12.4
				c1,0.6,0.8,1.4-0.2,2.2l-11.6,6.6C1129.6,613.2,1128,613.2,1127,612.8z"/>
			<path class="st11" d="M946.6,528.8l-11.8-6.8c-1-0.6-0.8-1.4,0.2-2.2l11.6-6.6c1-0.6,2.8-0.6,3.6-0.2l11.8,6.8
				c1,0.6,0.8,1.4-0.2,2.2l-11.6,6.6C949.2,529.4,947.6,529.4,946.6,528.8z"/>
			<path class="st11" d="M928.2,518.2l-11.8-6.8c-1-0.6-0.8-1.4,0.2-2.2l11.6-6.6c1-0.6,2.8-0.6,3.6-0.2l11.8,6.8
				c1,0.6,0.8,1.4-0.2,2.2l-11.6,6.6C930.6,518.6,929,518.8,928.2,518.2z"/>
			<path class="st11" d="M909.6,507.4l-11.8-6.8c-1-0.6-0.8-1.4,0.2-2.2l11.6-6.6c1-0.6,2.8-0.6,3.6-0.2l11.8,6.8
				c1,0.6,0.8,1.4-0.2,2.2l-11.6,6.6C912.2,508,910.6,508,909.6,507.4z"/>
			<path class="st11" d="M891,496.8l-11.8-6.8c-1-0.6-0.8-1.4,0.2-2.2l11.6-6.6c1-0.6,2.8-0.6,3.6-0.2l11.8,6.8
				c1,0.6,0.8,1.4-0.2,2.2l-11.6,6.6C893.6,497.2,892,497.4,891,496.8z"/>
			<path class="st11" d="M964.8,539.4l-11.8-6.8c-1-0.6-0.8-1.4,0.2-2.2l11.6-6.6c1-0.6,2.8-0.6,3.6-0.2l11.8,6.8
				c1,0.6,0.8,1.4-0.2,2.2l-11.6,6.6C967.4,539.8,965.6,539.8,964.8,539.4z"/>
			<path class="st11" d="M982.8,549.8L971,543c-1-0.6-0.8-1.4,0.2-2.2l11.6-6.6c1-0.6,2.8-0.6,3.6-0.2l11.8,6.8
				c1,0.6,0.8,1.4-0.2,2.2l-11.6,6.6C985.4,550.2,983.8,550.4,982.8,549.8z"/>
			<path class="st11" d="M1001,560.2l-11.8-6.8c-1-0.6-0.8-1.4,0.2-2.2l11.6-6.6c1-0.6,2.8-0.6,3.6-0.2l11.8,6.8
				c1,0.6,0.8,1.4-0.2,2.2l-11.6,6.6C1003.4,560.6,1001.8,560.8,1001,560.2z"/>
			<path class="st11" d="M1019,570.6l-11.8-6.8c-1-0.6-0.8-1.4,0.2-2.2l11.6-6.6c1-0.6,2.8-0.6,3.6-0.2l11.8,6.8
				c1,0.6,0.8,1.4-0.2,2.2l-11.6,6.6C1021.6,571.2,1020,571.2,1019,570.6z"/>
			<path class="st11" d="M1037,581.2l-11.8-6.8c-1-0.6-0.8-1.4,0.2-2.2l11.6-6.6c1-0.6,2.8-0.6,3.6-0.2l11.8,6.8
				c1,0.6,0.8,1.4-0.2,2.2l-11.6,6.6C1039.6,581.6,1038,581.6,1037,581.2z"/>
			<path class="st11" d="M1055.2,591.6l-11.8-6.8c-1-0.6-0.8-1.4,0.2-2.2l11.6-6.6c1-0.6,2.8-0.6,3.6-0.2l11.8,6.8
				c1,0.6,0.8,1.4-0.2,2.2l-11.6,6.6C1057.8,592,1056,592,1055.2,591.6z"/>
			<path class="st11" d="M1073.2,602l-11.8-6.8c-1-0.6-0.8-1.4,0.2-2.2l11.6-6.6c1-0.6,2.8-0.6,3.6-0.2l11.8,6.8
				c1,0.6,0.8,1.4-0.2,2.2l-11.6,6.6C1075.8,602.4,1074.2,602.6,1073.2,602z"/>
			<path class="st11" d="M1091.4,612.4l-11.8-6.8c-1-0.6-0.8-1.4,0.2-2.2l11.6-6.6c1-0.6,2.8-0.6,3.6-0.2l11.8,6.8
				c1,0.6,0.8,1.4-0.2,2.2l-11.6,6.6C1094,613,1092.2,613,1091.4,612.4z"/>
			<path class="st11" d="M1109.4,622.8l-11.8-6.8c-1-0.6-0.8-1.4,0.2-2.2l11.6-6.6c1-0.6,2.8-0.6,3.6-0.2l11.8,6.8
				c1,0.6,0.8,1.4-0.2,2.2l-11.6,6.6C1112,623.4,1110.4,623.4,1109.4,622.8z"/>
			<path class="st11" d="M937.2,503l-11.8-6.8c-1-0.6-0.8-1.4,0.2-2.2l11.6-6.6c1-0.6,2.8-0.6,3.6-0.2l11.8,6.8
				c1,0.6,0.8,1.4-0.2,2.2l-11.6,6.6C939.8,503.6,938,503.6,937.2,503z"/>
			<path class="st11" d="M919.2,492.6l-11.8-6.8c-1-0.6-0.8-1.4,0.2-2.2l11.6-6.6c1-0.6,2.8-0.6,3.6-0.2l11.8,6.8
				c1,0.6,0.8,1.4-0.2,2.2l-11.6,6.6C921.8,493.2,920,493.2,919.2,492.6z"/>
			<path class="st11" d="M901.2,482.2l-11.8-6.8c-1-0.6-0.8-1.4,0.2-2.2l11.6-6.6c1-0.6,2.8-0.6,3.6-0.2l11.8,6.8
				c1,0.6,0.8,1.4-0.2,2.2l-11.6,6.6C903.8,482.8,902,482.8,901.2,482.2z"/>
			<path class="st11" d="M883.2,472l-11.8-6.8c-1-0.6-0.8-1.4,0.2-2.2l11.6-6.6c1-0.6,2.8-0.6,3.6-0.2l11.8,6.8
				c1,0.6,0.8,1.4-0.2,2.2l-11.6,6.6C885.8,472.4,884,472.4,883.2,472z"/>
			<path class="st11" d="M901.6,461.2l-11.8-6.8c-1-0.6-0.8-1.4,0.2-2.2l3.8-2.2c1-0.6,2.8-0.6,3.6-0.2l11.8,6.8
				c1,0.6,0.8,1.4-0.2,2.2l-3.8,2.2C904.2,461.6,902.6,461.8,901.6,461.2z"/>
			<path class="st11" d="M925.2,474.8l-11.8-6.8c-1-0.6-0.8-1.4,0.2-2.2l3.8-2.2c1-0.6,2.8-0.6,3.6-0.2l11.8,6.8
				c1,0.6,0.8,1.4-0.2,2.2l-3.8,2.2C927.8,475.2,926,475.4,925.2,474.8z"/>
			<path class="st11" d="M943,485.2l-11.8-6.8c-1-0.6-0.8-1.4,0.2-2.2l3.8-2.2c1-0.6,2.8-0.6,3.6-0.2l11.8,6.8
				c1,0.6,0.8,1.4-0.2,2.2l-3.8,2.2C945.6,485.6,944,485.6,943,485.2z"/>
			<path class="st11" d="M961,495.4l-11.8-6.8c-1-0.6-0.8-1.4,0.2-2.2l3.8-2.2c1-0.6,2.8-0.6,3.6-0.2l11.8,6.8
				c1,0.6,0.8,1.4-0.2,2.2l-3.8,2.2C963.6,496,962,496,961,495.4z"/>
			<path class="st11" d="M978.8,505.8L967,499c-1-0.6-0.8-1.4,0.2-2.2l3.8-2.2c1-0.6,2.8-0.6,3.6-0.2l11.8,6.8
				c1,0.6,0.8,1.4-0.2,2.2l-3.8,2.2C981.4,506.2,979.8,506.4,978.8,505.8z"/>
			<path class="st11" d="M1079,563.6l-11.8-6.8c-1-0.6-0.8-1.4,0.2-2.2l3.8-2.2c1-0.6,2.8-0.6,3.6-0.2l11.8,6.8
				c1,0.6,0.8,1.4-0.2,2.2l-3.8,2.2C1081.6,564,1079.8,564.2,1079,563.6z"/>
			<path class="st11" d="M1096.8,574l-11.8-6.8c-1-0.6-0.8-1.4,0.2-2.2l3.8-2.2c1-0.6,2.8-0.6,3.6-0.2l11.8,6.8
				c1,0.6,0.8,1.4-0.2,2.2l-3.8,2.2C1099.4,574.4,1097.8,574.4,1096.8,574z"/>
			<path class="st11" d="M1114.8,584.2l-11.8-6.8c-1-0.6-0.8-1.4,0.2-2.2l3.8-2.2c1-0.6,2.8-0.6,3.6-0.2l11.8,6.8
				c1,0.6,0.8,1.4-0.2,2.2l-3.8,2.2C1117.4,584.8,1115.8,584.8,1114.8,584.2z"/>
			<path class="st11" d="M1132.6,594.6l-11.8-6.8c-1-0.6-0.8-1.4,0.2-2.2l3.8-2.2c1-0.6,2.8-0.6,3.6-0.2l11.8,6.8
				c1,0.6,0.8,1.4-0.2,2.2l-3.8,2.2C1135.2,595,1133.6,595.2,1132.6,594.6z"/>
			<path class="st11" d="M955.2,513.6l-11.8-6.8c-1-0.6-0.8-1.4,0.2-2.2l11.6-6.6c1-0.6,2.8-0.6,3.6-0.2l11.8,6.8
				c1,0.6,0.8,1.4-0.2,2.2l-11.6,6.6C957.8,514,956.2,514,955.2,513.6z"/>
			<path class="st11" d="M973.2,524l-11.8-6.8c-1-0.6-0.8-1.4,0.2-2.2l11.6-6.6c1-0.6,2.8-0.6,3.6-0.2l11.8,6.8
				c1,0.6,0.8,1.4-0.2,2.2l-11.6,6.6C975.8,524.4,974.2,524.4,973.2,524z"/>
			<path class="st11" d="M991.4,534.4l-11.8-6.8c-1-0.6-0.8-1.4,0.2-2.2l11.6-6.6c1-0.6,2.8-0.6,3.6-0.2l11.8,6.8
				c1,0.6,0.8,1.4-0.2,2.2l-11.6,6.6C994,534.8,992.4,535,991.4,534.4z"/>
			<path class="st11" d="M1009.4,544.8l-11.8-6.8c-1-0.6-0.8-1.4,0.2-2.2l11.6-6.6c1-0.6,2.8-0.6,3.6-0.2l11.8,6.8
				c1,0.6,0.8,1.4-0.2,2.2l-11.6,6.6C1012,545.4,1010.4,545.4,1009.4,544.8z"/>
			<path class="st11" d="M1027.6,555.2l-11.8-6.8c-1-0.6-0.8-1.4,0.2-2.2l11.6-6.6c1-0.6,2.8-0.6,3.6-0.2l11.8,6.8
				c1,0.6,0.8,1.4-0.2,2.2l-11.6,6.6C1030.2,555.8,1028.4,555.8,1027.6,555.2z"/>
			<path class="st11" d="M1045.6,565.8l-11.8-6.8c-1-0.6-0.8-1.4,0.2-2.2l11.6-6.6c1-0.6,2.8-0.6,3.6-0.2l11.8,6.8
				c1,0.6,0.8,1.4-0.2,2.2l-11.6,6.6C1048.2,566.2,1046.6,566.2,1045.6,565.8z"/>
			<path class="st11" d="M1063.8,576.2l-11.8-6.8c-1-0.6-0.8-1.4,0.2-2.2l11.6-6.6c1-0.6,2.8-0.6,3.6-0.2l11.8,6.8
				c1,0.6,0.8,1.4-0.2,2.2l-11.6,6.6C1066.4,576.6,1064.6,576.8,1063.8,576.2z"/>
			<path class="st11" d="M1081.8,586.6l-11.8-6.8c-1-0.6-0.8-1.4,0.2-2.2l11.6-6.6c1-0.6,2.8-0.6,3.6-0.2l11.8,6.8
				c1,0.6,0.8,1.4-0.2,2.2l-11.6,6.6C1084.4,587,1082.8,587.2,1081.8,586.6z"/>
			<path class="st11" d="M1099.8,597l-11.8-6.8c-1-0.6-0.8-1.4,0.2-2.2l11.6-6.6c1-0.6,2.8-0.6,3.6-0.2l11.8,6.8
				c1,0.6,0.8,1.4-0.2,2.2l-11.6,6.6C1102.4,597.6,1100.8,597.6,1099.8,597z"/>
			<path class="st11" d="M851.8,514.8l-34.4-20c-1-0.6-0.8-1.4,0.2-2.2l11.6-6.6c1-0.6,2.8-0.6,3.6-0.2l34.4,20
				c1,0.6,0.8,1.4-0.2,2.2l-11.6,6.6C854.4,515.2,852.8,515.4,851.8,514.8z"/>
			<path class="st11" d="M1074,643l-34.4-20c-1-0.6-0.8-1.4,0.2-2.2l11.6-6.6c1-0.6,2.8-0.6,3.6-0.2l34.4,20c1,0.6,0.8,1.4-0.2,2.2
				l-11.6,6.6C1076.6,643.6,1075,643.6,1074,643z"/>
			<path class="st11" d="M1001.6,624.4l-11.8-6.8c-1-0.6-0.8-1.4,0.2-2.2l13.8-8c1-0.6,2.8-0.6,3.6-0.2l11.8,6.8
				c1,0.6,0.8,1.4-0.2,2.2l-13.8,8C1004.2,624.8,1002.6,625,1001.6,624.4z"/>
			<path class="st11" d="M870.4,548.6l-18.8-10.8c-1-0.6-0.8-1.4,0.2-2.2l13.8-8c1-0.6,2.8-0.6,3.6-0.2l18.8,10.8
				c1,0.6,0.8,1.4-0.2,2.2l-13.8,8C873,549,871.2,549.2,870.4,548.6z"/>
			<path class="st11" d="M984.2,614.4l-18.8-10.8c-1-0.6-0.8-1.4,0.2-2.2l13.8-8c1-0.6,2.8-0.6,3.6-0.2l18.8,10.8
				c1,0.6,0.8,1.4-0.2,2.2l-13.8,8C986.8,614.8,985.2,614.8,984.2,614.4z"/>
			<path class="st11" d="M896.4,563.6l-18.8-10.8c-1-0.6-0.8-1.4,0.2-2.2l13.8-8c1-0.6,2.8-0.6,3.6-0.2l18.8,10.8
				c1,0.6,0.8,1.4-0.2,2.2l-13.8,8C899,564,897.4,564.2,896.4,563.6z"/>
			<path class="st11" d="M895.6,542.6l81.4,47c1,0.6,1,1.6,0,2.2l-14,8.2c-1,0.6-2.6,0.6-3.6,0L878,553L895.6,542.6z"/>
			<path class="st11" d="M1052.2,643.4l13,7.6c0.8,0.4,0.6,1.2-0.2,1.8l-5.6,3.2c-0.8,0.6-2.2,0.6-3,0.2l-13-7.6
				c-0.8-0.4-0.6-1.2,0.2-1.8l5.6-3.2C1050,643,1051.4,642.8,1052.2,643.4z"/>
			<path class="st11" d="M1034,632.8l13,7.6c0.8,0.4,0.6,1.2-0.2,1.8l-5.6,3.2c-0.8,0.6-2.2,0.6-3,0.2l-13-7.6
				c-0.8-0.4-0.6-1.2,0.2-1.8l5.6-3.2C1031.8,632.4,1033.2,632.4,1034,632.8z"/>
			<path class="st11" d="M1015.8,622.4l13,7.6c0.8,0.4,0.6,1.2-0.2,1.8l-5.6,3.2c-0.8,0.6-2.2,0.6-3,0.2l-13-7.6
				c-0.8-0.4-0.6-1.2,0.2-1.8l5.6-3.2C1013.8,622,1015.2,622,1015.8,622.4z"/>
			<path class="st11" d="M1044,627l13,7.6c0.8,0.4,0.6,1.2-0.2,1.8l-5.6,3.2c-0.8,0.6-2.2,0.6-3,0.2l-13-7.6
				c-0.8-0.4-0.6-1.2,0.2-1.8l5.6-3.2C1041.8,626.6,1043.2,626.6,1044,627z"/>
		</g>
		
			<radialGradient id="SVGID_9_" cx="831.3968" cy="672.7606" r="536.368" gradientTransform="matrix(1 0 0 -1 0 900)" gradientUnits="userSpaceOnUse">
			<stop  offset="0" style="stop-color:#E39A65"/>
			<stop  offset="0.4742" style="stop-color:#A92FFB"/>
			<stop  offset="0.5875" style="stop-color:#891CFB"/>
			<stop  offset="0.7262" style="stop-color:#6507FA"/>
			<stop  offset="1" style="stop-color:#3919BB"/>
		</radialGradient>
		<path class="st12" d="M1235.4,605.8L890,406.4c-5.4-3.2-8.2-10.8-6.4-17l78.2-253.6c2-6.2,8-8.8,13.4-5.8l345.4,199.4
			c5.4,3.2,8.2,10.8,6.4,17L1248.8,600C1246.8,606.4,1240.8,609,1235.4,605.8z"/>
		
			<linearGradient id="SVGID_10_" gradientUnits="userSpaceOnUse" x1="890.3513" y1="532" x2="1320.2487" y2="532" gradientTransform="matrix(1 0 0 -1 0 900)">
			<stop  offset="0" style="stop-color:#3919BB"/>
			<stop  offset="1" style="stop-color:#6507FA"/>
		</linearGradient>
		<path class="st13" d="M1232.2,597L897,403.4c-5.2-3-8-10.4-6-16.4l74.6-242.6c1.8-6,7.6-8.4,12.8-5.4l335.2,193.6
			c5.2,3,8,10.4,6,16.4L1245,591.6C1243,597.6,1237.4,600,1232.2,597z"/>
		<path class="st14" d="M1232.2,597L897,403.4c-5.2-3-8-10.4-6-16.4l74.6-242.6c1.8-6,7.6-8.4,12.8-5.4l335.2,193.6
			c5.2,3,8,10.4,6,16.4L1245,591.6C1243,597.6,1237.4,600,1232.2,597z"/>
		<path class="st14" d="M1232.2,597L897,403.4c-5.2-3-8-10.4-6-16.4l74.6-242.6c1.8-6,7.6-8.4,12.8-5.4l335.2,193.6
			c5.2,3,8,10.4,6,16.4L1245,591.6C1243,597.6,1237.4,600,1232.2,597z"/>
		<path class="st15" d="M1214,523L987.2,392c-3.6-2-5.4-7-4.2-11.2l51.4-166.6c1.2-4.2,5.2-5.8,8.8-3.8l226.8,131
			c3.6,2,5.4,7,4.2,11.2l-51.4,166.6C1221.6,523.2,1217.6,525,1214,523z"/>
		<g>
			
				<radialGradient id="SVGID_11_" cx="635.593" cy="787.2994" r="835.379" gradientTransform="matrix(1 0 0 -1 0 900)" gradientUnits="userSpaceOnUse">
				<stop  offset="0" style="stop-color:#E39A65"/>
				<stop  offset="0.4742" style="stop-color:#A92FFB"/>
				<stop  offset="0.5875" style="stop-color:#891CFB"/>
				<stop  offset="0.7262" style="stop-color:#6507FA"/>
				<stop  offset="1" style="stop-color:#3919BB"/>
			</radialGradient>
			<path class="st16" d="M1183.4,527L956.6,396c-3.6-2-5.4-7-4.2-11.2l51.4-166.6c1.2-4.2,5.2-5.8,8.8-3.8l226.8,131
				c3.6,2,5.4,7,4.2,11.2l-51.4,166.6C1191,527.4,1187,529,1183.4,527z"/>
		</g>
		<g class="st17">
			<path class="st11" d="M1183.4,527L956.6,396c-3.6-2-5.4-7-4.2-11.2l51.4-166.6c1.2-4.2,5.2-5.8,8.8-3.8l226.8,131
				c3.6,2,5.4,7,4.2,11.2l-51.4,166.6C1191,527.4,1187,529,1183.4,527z"/>
		</g>
		<path class="st9" d="M1239.4,345.4l-226.8-131c-2.2-1.2-4.6-1.2-6.4,0.2c1,0,2.2,0.2,3.2,0.8l226.8,131c3.6,2,5.4,7,4.2,11.2
			L1189,524.2c-0.4,1.6-1.4,2.8-2.4,3.6c2.4,0,4.6-1.8,5.4-4.6l51.4-166.6C1244.8,352.4,1243,347.4,1239.4,345.4z"/>
		<path class="st14" d="M897.4,663c-3.2,0-6.2-0.6-8.4-2l0,0l-91-52.6c-2.4-1.4-3.8-3.4-3.8-5.6c0-2.6,1.8-5.2,5-7l46.8-27
			c5.8-3.2,14.2-3.6,19.2-0.8l90.8,52.4c2.4,1.4,3.8,3.4,3.8,5.6c0,2.6-1.8,5.2-5,7L908,660.2C905,662,901,663,897.4,663z
			 M856.8,568.8c-3.2,0-6.8,0.8-9.4,2.4l-46.8,27c-2.4,1.4-3.8,3-3.8,4.6s1.4,2.6,2.4,3.4l90.8,52.4c4.2,2.4,11.6,2,16.4-0.8
			l46.8-27c2.4-1.4,3.8-3,3.8-4.6s-1.4-2.6-2.4-3.4l-90.8-52.4C862,569.4,859.6,568.8,856.8,568.8z"/>
	</g>
	<g>
		<g>
			<path class="st9" d="M1067.8,301.8l-14-8c-1.4-0.8-2-2.6-1.6-4l0,0c0.4-1.4,1.8-2,3.2-1.4l14,8c1.4,0.8,2,2.6,1.6,4l0,0
				C1070.4,302,1069,302.6,1067.8,301.8z"/>
			<path class="st9" d="M1101.2,321l-20.6-12c-1.4-0.8-2-2.6-1.6-4l0,0c0.4-1.4,1.8-2,3.2-1.4l20.6,12c1.4,0.8,2,2.6,1.6,4l0,0
				C1103.8,321.2,1102.4,321.8,1101.2,321z"/>
			<path class="st9" d="M1039.4,364.2l-14-8c-1.4-0.8-2-2.6-1.6-4l0,0c0.4-1.4,1.8-2,3.2-1.4l14,8c1.4,0.8,2,2.6,1.6,4l0,0
				C1042.2,364.4,1040.8,365,1039.4,364.2z"/>
			<path class="st9" d="M1069.2,381.4l-20.6-12c-1.4-0.8-2-2.6-1.6-4l0,0c0.4-1.4,1.8-2,3.2-1.4l20.6,12c1.4,0.8,2,2.6,1.6,4l0,0
				C1072,381.6,1070.6,382.2,1069.2,381.4z"/>
			<path class="st9" d="M1025.8,290.6l-8.8-5c-1.4-0.8-2-2.6-1.6-4l0,0c0.4-1.4,1.8-2,3.2-1.4l8.8,5c1.4,0.8,2,2.6,1.6,4l0,0
				C1028.4,290.8,1027,291.4,1025.8,290.6z"/>
			<path class="st9" d="M1052.2,319l-26.8-15.4c-1.4-0.8-2-2.6-1.6-4l0,0c0.4-1.4,1.8-2,3.2-1.4l26.8,15.4c1.4,0.8,2,2.6,1.6,4l0,0
				C1054.8,319.2,1053.4,319.8,1052.2,319z"/>
			<path class="st9" d="M1027.4,331l-8.8-5c-1.4-0.8-2-2.6-1.6-4l0,0c0.4-1.4,1.8-2,3.2-1.4l8.8,5c1.4,0.8,2,2.6,1.6,4l0,0
				C1030.2,331.2,1028.8,331.8,1027.4,331z"/>
			<path class="st9" d="M1072.4,409.6L1049,396c-1.4-0.8-2-2.6-1.6-4l0,0c0.4-1.4,1.8-2,3.2-1.4l23.4,13.6c1.4,0.8,2,2.6,1.6,4l0,0
				C1075.2,409.8,1073.8,410.4,1072.4,409.6z"/>
			<path class="st9" d="M1017.6,351.6l-5.6-3.2c-1.4-0.8-2-2.6-1.6-4l0,0c0.4-1.4,1.8-2,3.2-1.4l5.6,3.2c1.4,0.8,2,2.6,1.6,4l0,0
				C1020.4,351.8,1018.8,352.4,1017.6,351.6z"/>
			<path class="st9" d="M1012.2,374.8l-7-4c-1.4-0.8-2-2.6-1.6-4l0,0c0.4-1.4,1.8-2,3.2-1.4l7,4c1.4,0.8,2,2.6,1.6,4l0,0
				C1015,375,1013.6,375.6,1012.2,374.8z"/>
			<path class="st9" d="M1039.4,390.4l-18.4-10.6c-1.4-0.8-2-2.6-1.6-4l0,0c0.4-1.4,1.8-2,3.2-1.4L1041,385c1.4,0.8,2,2.6,1.6,4l0,0
				C1042.2,390.6,1040.8,391.2,1039.4,390.4z"/>
			<path class="st9" d="M1015.2,389.6L1002,382c-1.4-0.8-2-2.6-1.6-4l0,0c0.4-1.4,1.8-2,3.2-1.4l13.2,7.6c1.4,0.8,2,2.6,1.6,4l0,0
				C1018,389.8,1016.4,390.4,1015.2,389.6z"/>
			<path class="st9" d="M1092.6,421.2l-8.6-5c-1.4-0.8-2-2.6-1.6-4l0,0c0.4-1.4,1.8-2,3.2-1.4l8.6,5c1.4,0.8,2,2.6,1.6,4l0,0
				C1095.2,421.4,1093.8,422,1092.6,421.2z"/>
			<path class="st9" d="M1060,349.8l-23.4-13.6c-1.4-0.8-2-2.6-1.6-4l0,0c0.4-1.4,1.8-2,3.2-1.4l23.4,13.6c1.4,0.8,2,2.6,1.6,4l0,0
				C1062.8,350,1061.4,350.6,1060,349.8z"/>
		</g>
		<path class="st18" d="M1062.8,338.4l-40.8-23.6c-1.4-0.8-2-2.6-1.6-4l0,0c0.4-1.4,1.8-2,3.2-1.4l40.8,23.6c1.4,0.8,2,2.6,1.6,4
			l0,0C1065.4,338.4,1064,339,1062.8,338.4z"/>
		<path class="st18" d="M1038.8,350.6l-23.4-13.6c-1.4-0.8-2-2.6-1.6-4l0,0c0.4-1.4,1.8-2,3.2-1.4l23.4,13.6c1.4,0.8,2,2.6,1.6,4
			l0,0C1041.4,350.8,1040,351.4,1038.8,350.6z"/>
		<path class="st18" d="M1077.8,360l-8.6-5c-1.4-0.8-2-2.6-1.6-4l0,0c0.4-1.4,1.8-2,3.2-1.4l8.6,5c1.4,0.8,2,2.6,1.6,4l0,0
			C1080.4,360.2,1079,360.8,1077.8,360z"/>
		<path class="st18" d="M1164.2,357.6l-50.4-29c-1.4-0.8-2-2.6-1.6-4l0,0c0.4-1.4,1.8-2,3.2-1.4l50.4,29c1.4,0.8,2,2.6,1.6,4l0,0
			C1167,357.6,1165.6,358.2,1164.2,357.6z"/>
		<path class="st19" d="M1036.8,375.8l-28.2-16.2c-1.4-0.8-2-2.6-1.6-4l0,0c0.4-1.4,1.8-2,3.2-1.4l28.2,16.2c1.4,0.8,2,2.6,1.6,4
			l0,0C1039.4,376,1038,376.6,1036.8,375.8z"/>
		<path class="st19" d="M1041,286.4l-20.6-12c-1.4-0.8-2-2.6-1.6-4l0,0c0.4-1.4,1.8-2,3.2-1.4l20.6,12c1.4,0.8,2,2.6,1.6,4l0,0
			C1043.8,286.6,1042.4,287.2,1041,286.4z"/>
		<path class="st18" d="M1010.8,400.2l-24-13.8c-1.4-0.8-2-2.6-1.6-4l0,0c0.4-1.4,1.8-2,3.2-1.4l24,13.8c1.4,0.8,2,2.6,1.6,4l0,0
			C1013.6,400.4,1012.2,401,1010.8,400.2z"/>
	</g>
	<g>
		<path class="st9" d="M1169.8,331.6l-10.2-6c-1-0.6-1.4-1.8-1.2-3l0,0c0.4-1,1.4-1.6,2.4-1l10.2,6c1,0.6,1.4,1.8,1.2,3l0,0
			C1171.8,331.8,1170.8,332.2,1169.8,331.6z"/>
		<path class="st9" d="M1189.4,343l-10.2-6c-1-0.6-1.4-1.8-1.2-3l0,0c0.4-1,1.4-1.6,2.4-1l10.2,6c1,0.6,1.4,1.8,1.2,3l0,0
			C1191.4,343,1190.4,343.4,1189.4,343z"/>
		<path class="st9" d="M1209,354.2l-10.2-6c-1-0.6-1.4-1.8-1.2-3l0,0c0.4-1,1.4-1.6,2.4-1l10.2,6c1,0.6,1.4,1.8,1.2,3l0,0
			C1211,354.4,1210,354.8,1209,354.2z"/>
		<path class="st19" d="M1218.6,359.8l-0.4-0.2c-1-0.6-1.4-1.8-1.2-3l0,0c0.4-1,1.4-1.6,2.4-1l0.4,0.2c1,0.6,1.4,1.8,1.2,3l0,0
			C1220.6,359.8,1219.6,360.4,1218.6,359.8z"/>
	</g>
	
		<linearGradient id="SVGID_12_" gradientUnits="userSpaceOnUse" x1="597.2" y1="473.075" x2="781.5999" y2="473.075" gradientTransform="matrix(1 0 0 -1 0 900)">
		<stop  offset="0" style="stop-color:#E39A65"/>
		<stop  offset="1" style="stop-color:#E95F8D"/>
	</linearGradient>
	<path class="st20" d="M689.6,479.8c-6.4,0-13-1.6-18.8-5l0,0L602,435c-3-1.8-4.8-4.8-4.8-8.2c0-3.4,1.8-6.6,4.8-8.2l68.6-39.6
		c11.6-6.6,26-6.6,37.6,0l68.6,39.6c3,1.8,4.8,4.8,4.8,8.2c0,3.4-1.8,6.6-4.8,8.2l-68.6,39.6C702.4,478,696,479.8,689.6,479.8z
		 M673,470.8c10.2,5.8,22.8,5.8,33,0l68.6-39.6c1.6-1,2.6-2.6,2.6-4.4s-1-3.4-2.6-4.4L706,382.8c-10.2-5.8-22.8-5.8-33,0l-68.6,39.6
		c-1.6,1-2.6,2.6-2.6,4.4s1,3.4,2.6,4.4L673,470.8z"/>
	<g>
		<ellipse class="st4" cx="689.2" cy="427.8" rx="47.2" ry="27.2"/>
		
			<radialGradient id="SVGID_13_" cx="613.6666" cy="623.5686" r="397.0966" gradientTransform="matrix(1 0 0 -1 0 900)" gradientUnits="userSpaceOnUse">
			<stop  offset="0" style="stop-color:#E39A65"/>
			<stop  offset="0.1528" style="stop-color:#A92FFB"/>
			<stop  offset="0.4087" style="stop-color:#3919BB"/>
			<stop  offset="0.9311" style="stop-color:#3919BB"/>
		</radialGradient>
		<path class="st21" d="M759,233.6H624.6L637,379l0,0c0,8,5.4,16.2,16,22.4c21.4,12.4,56,12.4,77.4,0c10.6-6.2,16-14.2,16-22.4
			L759,233.6z"/>
		<path class="st14" d="M759,233.6H624.6l2,24c3,4,7.2,7.8,12.4,11.2c25.6,17,68,20.4,97,8l-4.4,106.4c-0.2,4.6-1.8,9.2-4.8,12.6
			C722.4,401,714,407,698,410.4c11.8-0.8,23.4-3.8,32.6-9c10.6-6.2,16-14.2,16-22.4l10-116.6l0,0L759,233.6z"/>
		<ellipse class="st14" cx="692" cy="233.6" rx="67.2" ry="38.8"/>
		<ellipse class="st14" cx="692" cy="220" rx="57.8" ry="33.4"/>
		
			<linearGradient id="SVGID_14_" gradientUnits="userSpaceOnUse" x1="620.6946" y1="672.925" x2="763.13" y2="672.925" gradientTransform="matrix(1 0 0 -1 0 900)">
			<stop  offset="0" style="stop-color:#E39A65"/>
			<stop  offset="0.252" style="stop-color:#A92FFB"/>
			<stop  offset="0.5556" style="stop-color:#3919BB"/>
		</linearGradient>
		<path class="st22" d="M763,231.8L763,231.8L763,231.8c0-0.2,0-0.2,0-0.4l-1.2-13v0.2c-0.6-9.8-7.4-19.6-20.4-27.2
			c-27.2-15.8-71.4-15.8-98.8,0c-13.4,7.8-20.2,17.8-20.4,27.8l0,0l-1.2,11.6c0,0.4,0,0.6,0,1v0.2l0,0c-0.8,11,6.2,22.2,20.8,30.6
			c27.8,16,73,16,100.8,0C757,254.2,764,243,763,231.8z"/>
		
			<linearGradient id="SVGID_15_" gradientUnits="userSpaceOnUse" x1="634.0502" y1="680" x2="749.7678" y2="680" gradientTransform="matrix(1 0 0 -1 0 900)">
			<stop  offset="0" style="stop-color:#4F1FEC"/>
			<stop  offset="1" style="stop-color:#A92FFB"/>
		</linearGradient>
		<ellipse class="st23" cx="692" cy="220" rx="57.8" ry="33.4"/>
		
			<linearGradient id="SVGID_16_" gradientUnits="userSpaceOnUse" x1="631.4" y1="680" x2="747.1176" y2="680" gradientTransform="matrix(1 0 0 -1 0 900)">
			<stop  offset="0" style="stop-color:#4F1FEC"/>
			<stop  offset="1" style="stop-color:#A92FFB"/>
		</linearGradient>
		<ellipse class="st24" cx="689.2" cy="220" rx="57.8" ry="33.4"/>
		<path class="st14" d="M657.8,201.4c22.6-13,59.2-13,81.8,0c0.2,0.2,0.6,0.4,0.8,0.6c-2.2-2-4.8-3.8-7.6-5.4
			c-22.6-13-59.2-13-81.8,0c-22.4,12.8-22.6,33.6-0.8,46.8C635.6,230.2,638.2,212.6,657.8,201.4z"/>
		
			<linearGradient id="SVGID_17_" gradientUnits="userSpaceOnUse" x1="633.99" y1="695.175" x2="779.8902" y2="695.175" gradientTransform="matrix(1 0 0 -1 0 900)">
			<stop  offset="0" style="stop-color:#131060"/>
			<stop  offset="0.1857" style="stop-color:#141062"/>
			<stop  offset="0.2823" style="stop-color:#19106A"/>
			<stop  offset="0.3584" style="stop-color:#221078"/>
			<stop  offset="0.4238" style="stop-color:#2E0F8B"/>
			<stop  offset="0.4823" style="stop-color:#3E0FA3"/>
			<stop  offset="0.5359" style="stop-color:#510EC2"/>
			<stop  offset="0.5847" style="stop-color:#680DE5"/>
			<stop  offset="0.6071" style="stop-color:#740DF8"/>
			<stop  offset="0.6179" style="stop-color:#7A14F0"/>
			<stop  offset="0.6826" style="stop-color:#9B3CC3"/>
			<stop  offset="0.7477" style="stop-color:#B75D9D"/>
			<stop  offset="0.8123" style="stop-color:#CC7680"/>
			<stop  offset="0.8762" style="stop-color:#DC886C"/>
			<stop  offset="0.9391" style="stop-color:#E5935F"/>
			<stop  offset="1" style="stop-color:#E8975B"/>
		</linearGradient>
		<path class="st25" d="M651,202.2c22.6-13,59.2-13,81.8,0c10,5.8,15.6,13.2,16.8,20.8c1.4-9.4-4.2-19.2-16.8-26.6
			c-22.6-13-59.2-13-81.8,0c-12.6,7.2-18.2,17-16.8,26.6C635.4,215.4,641,208,651,202.2z"/>
		
			<radialGradient id="SVGID_18_" cx="602.9164" cy="713.0594" r="259.7642" gradientTransform="matrix(1 0 0 -1 0 900)" gradientUnits="userSpaceOnUse">
			<stop  offset="0" style="stop-color:#E39A65"/>
			<stop  offset="0.252" style="stop-color:#A92FFB"/>
			<stop  offset="0.7357" style="stop-color:#3919BB"/>
		</radialGradient>
		<path class="st26" d="M741.8,191.8c-27.2-16-71.6-16.4-99.2-0.8s-27.8,41.2-0.6,57.2s71.6,16.4,99.2,0.8
			C768.8,233.4,769,207.8,741.8,191.8z M732.8,243.6c-7.6,4.4-16.6,7.2-26.4,8.6l-1-3.4c-0.4-1.4-1.8-2.4-3.2-2.4h-20.8
			c-1.4,0-2.8,1-3.2,2.4l-1,3.4c-9.6-1.4-18.8-4.4-26.4-8.6c-22.6-13-22.6-34.2,0-47.2s59.2-13,81.8,0
			C755.4,209.4,755.4,230.6,732.8,243.6z"/>
		<g>
			<path class="st9" d="M732.8,194c-22.6-13-59.2-13-81.8,0c-11.8,6.8-17.4,15.8-16.8,24.8c0.6-8.2,6.2-16.2,16.8-22.4
				c22.6-13,59.2-13,81.8,0c10.8,6.2,16.4,14.2,16.8,22.4C750.2,209.8,744.6,200.8,732.8,194z"/>
			<path class="st9" d="M741.2,246.6c-27.6,15.6-71.8,15.2-99.2-0.8c-13-7.6-19.6-17.4-20.2-27.2c-0.6,10.6,6.2,21.4,20.2,29.8
				c27.2,16,71.6,16.4,99.2,0.8c14.4-8.2,21.4-19,20.8-30C761.4,229.2,754.6,239,741.2,246.6z"/>
		</g>
		<path class="st27" d="M698.4,254h-13c-0.8,0-1.4-0.6-1.4-1.4V252c0-0.8,0.6-1.4,1.4-1.4h13c0.8,0,1.4,0.6,1.4,1.4v0.8
			C699.6,253.6,699.2,254,698.4,254z"/>
		
			<linearGradient id="SVGID_19_" gradientUnits="userSpaceOnUse" x1="682.7512" y1="648.1" x2="702.9354" y2="648.1" gradientTransform="matrix(1 0 0 -1 0 900)">
			<stop  offset="0" style="stop-color:#131060"/>
			<stop  offset="0.1857" style="stop-color:#141062"/>
			<stop  offset="0.2823" style="stop-color:#19106A"/>
			<stop  offset="0.3584" style="stop-color:#221078"/>
			<stop  offset="0.4238" style="stop-color:#2E0F8B"/>
			<stop  offset="0.4823" style="stop-color:#3E0FA3"/>
			<stop  offset="0.5359" style="stop-color:#510EC2"/>
			<stop  offset="0.5847" style="stop-color:#680DE5"/>
			<stop  offset="0.6071" style="stop-color:#740DF8"/>
			<stop  offset="0.6179" style="stop-color:#7A14F0"/>
			<stop  offset="0.6826" style="stop-color:#9B3CC3"/>
			<stop  offset="0.7477" style="stop-color:#B75D9D"/>
			<stop  offset="0.8123" style="stop-color:#CC7680"/>
			<stop  offset="0.8762" style="stop-color:#DC886C"/>
			<stop  offset="0.9391" style="stop-color:#E5935F"/>
			<stop  offset="1" style="stop-color:#E8975B"/>
		</linearGradient>
		<path class="st28" d="M698.2,250.8h-12.4c-0.8,0-1.6,0.8-1.6,1.6v0.2c0,0.2,0,0.2,0,0.4c0.2-0.6,0.8-1.2,1.4-1.2H698
			c0.8,0,1.2,0.4,1.4,1.2c0-0.2,0-0.2,0-0.4v-0.2C699.6,251.4,699,250.8,698.2,250.8z"/>
		<g>
			<path class="st18" d="M693.8,364.2c-1.6,5.8-7.4,9.2-13.2,7.6s-9.2-7.4-7.6-13.2c1.6-5.8,7-7.4,12.6-5.8
				C691.4,354.4,695.4,358.4,693.8,364.2z"/>
			<path class="st18" d="M702.2,352.8c-2.2,2.2-5,1.8-6.8,0s-2-4.6,0.2-6.8c2.2-2.2,6.2-3.2,8.2-1.2
				C705.6,346.6,704.4,350.8,702.2,352.8z"/>
			<path class="st18" d="M691,344c-0.6,3-3,4.4-5.6,4s-4.4-2.6-3.8-5.6c0.6-3,3.2-6.2,5.8-5.8C690.2,337,691.6,341,691,344z"/>
			<path class="st18" d="M677.2,342.6c1.2,2.8-0.2,5.2-2.6,6.2c-2.4,1-5,0.2-6.2-2.6c-1.2-2.8-0.6-7,1.8-8S676,339.8,677.2,342.6z"
				/>
		</g>
	</g>
	<path class="st29" d="M696.4,252.4c0,0,37.6-12.6,22.4-55.8c-15.2-43.2-44.8-56.4-32.8-90.8c0,0-18.6,28-1.2,65.8
		s21.4,33.4,21,51.6c-0.2,21.4-17.6,29.2-17.6,29.2S696.4,252.4,696.4,252.4z"/>
	<path class="st29" d="M699.6,111.8c0,0-4-25.8,20.4-51.8c0,0-21.4,47.8-14.4,71.4C705.6,131.4,700,116.4,699.6,111.8z"/>
</g>
</svg>
